Coordinates
version=1
nRows=17
nColumns=36
inDegrees=yes

Units are S.I. units (second, meters, Newtons, ...)
If the header above contains a line with 'inDegrees', this indicates whether rotational values are in degrees (yes) or radians (no).

endheader
time	pelvis_tilt	pelvis_list	pelvis_rotation	pelvis_tx	pelvis_ty	pelvis_tz	hip_flexion_r	hip_adduction_r	hip_rotation_r	knee_angle_r	knee_angle_r_beta	ankle_angle_r	subtalar_angle_r	mtp_angle_r	hip_flexion_l	hip_adduction_l	hip_rotation_l	knee_angle_l	knee_angle_l_beta	ankle_angle_l	subtalar_angle_l	mtp_angle_l	lumbar_extension	lumbar_bending	lumbar_rotation	arm_flex_r	arm_add_r	arm_rot_r	elbow_flex_r	pro_sup_r	arm_flex_l	arm_add_l	arm_rot_l	elbow_flex_l	pro_sup_l
      3.42000000	    -14.21719385	     -1.76247645	      4.87710892	     -0.33733597	      0.76418614	     -0.60017140	     66.06577078	     -6.53135919	     -0.84884626	     72.70549720	      1.26895031	     21.17432959	    -10.42196530	     -7.49998892	     65.65556435	      1.52675300	      6.00785161	     72.15418207	      1.25932805	     18.67133007	    -15.06309951	     -7.49998892	    -25.98260698	      2.49647034	     -4.89000797	     24.40394606	    -22.73721696	     14.81896645	    133.16057037	    102.88318066	     21.57870978	    -18.22316794	     14.89000845	    132.94504008	     94.48265260
      3.43000000	    -14.18613163	     -1.68908123	      4.78998043	     -0.33274761	      0.77517840	     -0.59991163	     64.30481094	     -6.31116942	     -0.90306112	     70.47717527	      1.23005876	     20.78030831	    -10.37069719	     -7.49998899	     63.83222470	      1.38538466	      5.99393405	     69.83914359	      1.21892300	     18.29493757	    -14.93987151	     -7.49998899	    -25.14263049	      2.26612885	     -4.94950341	     22.71772756	    -22.46423417	     14.94457655	    133.07359117	    102.92971468	     19.82994573	    -18.16084442	     14.94100300	    132.65967265	     94.47629703
      3.44000000	    -13.77096546	     -1.50758508	      4.70189159	     -0.32801019	      0.78696906	     -0.59976084	     62.09407343	     -6.16049830	     -0.96636230	     68.13327948	      1.18915006	     19.59275120	    -11.22288268	     -7.49998938	     61.50891953	      1.26288667	      5.75711528	     67.35808936	      1.17562044	     17.23053664	    -15.69456788	     -7.49998938	    -24.75924681	      1.96743968	     -4.99958911	     21.09719675	    -22.05852248	     14.72146552	    132.90845492	    103.28206032	     18.07407054	    -17.98568087	     14.72104343	    132.24359863	     94.64776562
      3.45000000	    -13.55853950	     -1.39037872	      4.60514826	     -0.32309356	      0.79845203	     -0.59967072	     60.05210173	     -5.99301656	     -0.98712115	     65.72013118	      1.14703267	     19.03102499	    -11.00173666	     -7.49998948	     59.38507906	      1.11743050	      5.59514874	     64.84209289	      1.13170801	     16.70585852	    -15.48412575	     -7.49998948	    -24.08568043	      1.73908112	     -4.97421587	     19.37054149	    -21.72193340	     14.73687250	    132.67731771	    103.36544384	     16.18657829	    -17.74878612	     14.48485846	    131.71323880	     94.64821355
      3.46000000	    -13.32113928	     -1.29003823	      4.48329297	     -0.31805154	      0.80996035	     -0.59940645	     57.96709520	     -5.77291576	     -0.99754149	     63.23425749	      1.10364599	     18.33466077	    -10.87476554	     -7.49998958	     57.20054228	      0.93341956	      5.46152472	     62.22462055	      1.08602450	     16.06256481	    -15.34137916	     -7.49998958	    -23.45906849	      1.46166837	     -5.01118875	     17.61391892	    -21.41406987	     14.76976873	    132.45999406	    103.44814601	     14.35456428	    -17.52797553	     14.21370443	    131.16772796	     94.63655970
      3.47000000	    -12.92691266	     -1.17272526	      4.39105459	     -0.31302717	      0.82151420	     -0.59915522	     55.69831261	     -5.57780547	     -1.01317974	     60.68822938	      1.05920942	     17.26299457	    -11.18180433	     -7.49998977	     54.85792588	      0.77775799	      5.31147694	     59.54979602	      1.03934001	     15.06731969	    -15.55324622	     -7.49998977	    -23.02447378	      1.20072836	     -5.00316563	     15.92250562	    -21.11122562	     14.71917439	    132.25510031	    103.67100040	     12.53929364	    -17.32279941	     13.86886508	    130.58255153	     94.67565186
      3.48000000	    -12.60680885	     -1.07419402	      4.34455005	     -0.30803734	      0.83265668	     -0.59916041	     53.51895268	     -5.41761141	     -1.00667698	     58.12196704	      1.01441969	     16.26418853	    -11.32406774	     -7.49998995	     52.61123471	      0.64094602	      5.13737421	     56.84417398	      0.99211800	     14.13254872	    -15.52575534	     -7.49998995	    -22.44659567	      1.02046782	     -5.03968385	     14.24453124	    -20.88023793	     14.71362763	    132.00429510	    103.89635942	     10.74337433	    -17.05106251	     13.56240206	    129.81691962	     94.71269746
      3.49000000	    -12.30614044	     -0.95428836	      4.25623222	     -0.30295319	      0.84348949	     -0.59915882	     51.36864843	     -5.27067610	     -1.00690246	     55.53182046	      0.96921311	     15.34272876	    -11.32997465	     -7.49999007	     50.37157442	      0.51313821	      4.94359586	     54.11214113	      0.94443503	     13.27182426	    -15.31113841	     -7.49999007	    -21.77549341	      0.79689449	     -5.02902623	     12.58247855	    -20.67075050	     14.80815387	    131.61849332	    104.03346284	      8.97883834	    -16.76124435	     13.28305390	    128.88112125	     94.72109275
      3.50000000	    -12.14704152	     -0.91012686	      4.03602836	     -0.29779621	      0.85375688	     -0.59852887	     49.38861016	     -4.89313949	     -0.84624888	     52.90979245	      0.92345008	     14.48638293	    -11.28863370	     -7.49999016	     48.27564428	      0.20366506	      4.70125339	     51.33795256	      0.89601630	     12.48486113	    -15.01389330	     -7.49999016	    -20.90399403	      0.52864312	     -4.92568217	     10.89985623	    -20.42755982	     14.99499905	    131.17697425	    104.10695858	      7.20670629	    -16.54045901	     13.06048828	    127.95416424	     94.70105492
      3.51000000	    -11.78581396	     -0.88229378	      3.77536389	     -0.29253217	      0.86401000	     -0.59754578	     47.17203392	     -4.44456002	     -0.63853357	     50.23168869	      0.87670836	     13.32324186	    -11.47580192	     -7.49999028	     45.96789771	     -0.24798053	      4.21618139	     48.52829068	      0.84697845	     11.50775632	    -14.72896399	     -7.49999028	    -20.24493361	      0.27146954	     -4.70909638	      9.29788631	    -20.10378577	     15.01678620	    130.64136435	    104.19316937	      5.49083195	    -16.29792953	     12.67114451	    126.92823795	     94.68265666
      3.52000000	    -11.44754792	     -0.84817521	      3.56936066	     -0.28735143	      0.87391954	     -0.59692150	     44.97342888	     -4.04982893	     -0.41862515	     47.47950494	      0.82867369	     11.87457859	    -12.16433941	     -7.49999050	     43.64265240	     -0.52728698	      3.95095425	     45.62435669	      0.79629524	     10.41582638	    -14.68893232	     -7.49999050	    -19.60763779	      0.05049753	     -4.61606242	      7.71311603	    -19.85573525	     14.95400985	    130.24239834	    104.42601743	      3.85891996	    -16.05278681	     12.37004652	    125.97884503	     94.78409470
      3.53000000	    -11.07630227	     -0.74939390	      3.48869171	     -0.28213079	      0.88350047	     -0.59694238	     42.75049498	     -3.91128870	     -0.34977474	     44.78467432	      0.78164002	     10.63925395	    -12.48309801	     -7.49999078	     41.28044677	     -0.58395858	      3.80392614	     42.66729502	      0.74468478	      9.27939681	    -14.64826365	     -7.49999078	    -18.92962416	     -0.13146944	     -4.56155948	      6.17419110	    -19.71485968	     14.88016115	    129.71428959	    104.69316076	      2.31101972	    -15.75545896	     12.07765939	    124.81674447	     94.92416297
      3.54000000	    -10.74626955	     -0.61631327	      3.39671761	     -0.27679450	      0.89248042	     -0.59696208	     40.61720338	     -3.85102117	     -0.32287104	     42.17744391	      0.73613527	      9.80339603	    -12.12980319	     -7.49999089	     38.98845452	     -0.60429196	      3.64870092	     39.78311372	      0.69434632	      8.37587430	    -14.11704555	     -7.49999089	    -18.10017924	     -0.34528070	     -4.50035794	      4.72239297	    -19.56831315	     14.85328206	    129.04644674	    104.73635824	      0.80244001	    -15.41061026	     11.70389512	    123.47016242	     94.86138905
      3.55000000	    -10.35222851	     -0.47868477	      3.27359952	     -0.27143075	      0.90092641	     -0.59696375	     38.44749641	     -3.76665267	     -0.19616058	     39.61186479	      0.69135746	      8.95238147	    -11.88317542	     -7.49999099	     36.66045213	     -0.64210923	      3.38755245	     36.92291442	      0.64442643	      7.43854502	    -13.66752748	     -7.49999099	    -17.39713395	     -0.53030068	     -4.46136402	      3.23116855	    -19.44988231	     14.74832914	    128.51427344	    104.77197629	     -0.69908074	    -15.11105595	     11.41605720	    122.29161003	     94.81062087
      3.56000000	     -9.86554131	     -0.34963445	      3.15264835	     -0.26610501	      0.90886427	     -0.59686397	     36.21583911	     -3.68185960	     -0.15183421	     37.06923262	      0.64698016	      8.00788557	    -11.77873777	     -7.49999111	     34.29593379	     -0.68359878	      3.10707984	     34.14212092	      0.59589242	      6.39808800	    -13.33130331	     -7.49999111	    -16.83663127	     -0.78075486	     -4.34571259	      1.79211680	    -19.34200501	     14.45734304	    128.09341010	    104.84745019	     -2.04824233	    -14.83443416	     11.15814553	    121.17228073	     94.78377616
      3.57000000	     -9.43014582	     -0.26386247	      3.01265604	     -0.26077865	      0.91606241	     -0.59681048	     34.08581184	     -3.55156138	     -0.02658135	     34.60409502	      0.60395539	      7.06459107	    -11.71246335	     -7.49999124	     32.05361875	     -0.75289205	      2.80366028	     31.46837477	      0.54922675	      5.35975717	    -13.01539078	     -7.49999124	    -16.19577301	     -0.92299393	     -4.12996934	      0.31119160	    -19.27887296	     14.14541862	    127.70798216	    104.96165732	     -3.31508515	    -14.59736285	     11.02464187	    120.02566770	     94.76519293
      3.58000000	     -8.99437751	     -0.18686260	      2.78693055	     -0.25554480	      0.92262510	     -0.59647841	     32.02036632	     -3.36587632	      0.13754124	     32.18375480	      0.56171249	      6.02337624	    -11.88438729	     -7.49999147	     29.89116187	     -0.87015516	      2.47367774	     28.94552207	      0.50519466	      4.27986504	    -12.78871091	     -7.49999147	    -15.59915298	     -1.11154703	     -3.69065643	     -1.24750364	    -19.20367151	     13.76078391	    127.50364818	    105.15177691	     -4.35000166	    -14.48176100	     11.15495514	    118.89336396	     94.83866118
